<?xml version="1.0" encoding="UTF-8"?><svg id="Layer_2" xmlns="http://www.w3.org/2000/svg" xmlns:xlink="http://www.w3.org/1999/xlink" viewBox="0 0 2803.19 290.63"><defs><style>.cls-1{fill:#d89328;}.cls-2{fill:#807158;}.cls-3{fill:url(#radial-gradient);}.cls-4{fill:url(#radial-gradient-2);}.cls-5{fill:#231f20;}</style><radialGradient id="radial-gradient" cx="173" cy="146.59" fx="173" fy="146.59" r="168.06" gradientUnits="userSpaceOnUse"><stop offset="0" stop-color="#a2b572"/><stop offset="1" stop-color="#677049"/></radialGradient><radialGradient id="radial-gradient-2" cx="173" cy="146.59" fx="173" fy="146.59" r="168.06" xlink:href="#radial-gradient"/></defs><g id="Layer_1-2"><polygon class="cls-1" points="117.07 30.77 170.51 0 223.91 30.77 170.51 61.61 117.07 30.77"/><polygon class="cls-2" points="126.79 36.38 117.16 41.99 170.51 72.86 223.96 42 214.28 36.36 170.49 61.61 126.79 36.38"/><path class="cls-3" d="M161.49,290.63c-.75-.3-1.19-.43-1.58-.65-11.83-6.79-23.64-13.6-35.47-20.4-10.31-5.93-20.62-11.87-30.95-17.77-9.19-5.25-18.41-10.46-26.69-17.11-6.47-5.2-12.45-10.93-18.02-17.1-6.39-7.08-12.11-14.65-17.24-22.66-6.58-10.26-12.25-21-17.04-32.23-4.56-10.67-8.24-21.62-10.65-32.95-1.36-6.39-2.52-12.87-3.03-19.36C.16,102.16-.2,93.85,.12,85.59c.47-12.19,2.92-24.02,9.11-34.77,5.28-9.16,12.68-16.02,22.7-19.63,5.82-2.1,11.9-2.61,18.14-2.05,13.99,1.26,26.59,6.48,38.56,13.32,23.67,13.51,47.19,27.26,70.81,40.87,1.54,.89,2.09,1.88,2.09,3.66-.05,67.12-.04,134.23-.04,201.35v2.31Zm-25.98-117.97c.07-.89,.15-1.4,.15-1.92,0-25.78,0-51.55,.03-77.33,0-1.23-.43-1.92-1.49-2.53-8.71-4.98-17.3-10.17-26.11-14.96-3.87-2.11-8.05-3.9-12.31-5.02-9.6-2.53-17.31,1.65-20.96,10.92-2.22,5.63-2.71,11.57-2.25,17.52,.71,9.2,3.09,17.99,7.11,26.32,5.9,12.23,13.83,22.69,25.78,29.65,5.74,3.35,11.52,6.64,17.28,9.96,4.16,2.4,8.31,4.8,12.78,7.38Z"/><path class="cls-4" d="M180.88,290.41c-.04-.92-.1-1.55-.1-2.18,0-67.18,0-134.37-.01-201.55,0-1.24,.13-2.19,1.42-2.93,24.19-13.93,48.29-27.99,72.53-41.84,9.68-5.53,19.95-9.77,30.99-11.8,10.93-2.01,21.56-1.47,31.33,4.54,10.29,6.33,16.66,15.69,20.47,26.95,2.88,8.51,4.09,17.3,4.45,26.24,1.13,27.93-5.08,54.33-16.64,79.6-8.55,18.69-19.27,36-33.17,51.23-11.24,12.31-24.39,22.11-38.89,30.31-23.62,13.35-47.08,27.01-70.6,40.54-.49,.28-1.01,.51-1.78,.89Zm25.42-36.35c.94-.49,1.47-.75,1.97-1.04,13.46-7.8,26.93-15.59,40.37-23.42,18.29-10.64,33.48-24.6,44.65-42.64,17.07-27.55,24.48-57.59,22.07-89.93-.66-8.9-3.09-17.39-7.68-25.16-8.43-14.27-19.68-18.98-35.74-14.94-6.96,1.75-13.52,4.52-19.74,8.04-14.89,8.42-29.67,17.01-44.53,25.47-1.3,.74-1.39,1.7-1.39,2.94,.01,52.81,.01,105.61,.01,158.42v2.27Z"/><g><path class="cls-5" d="M434.18,107.1c4.04-.35,8.76-.68,14.16-.99,5.39-.31,11.09-.57,17.1-.79,6-.22,12.04-.39,18.11-.53,6.07-.13,11.8-.2,17.19-.2,15.32,0,29.26,1.16,41.82,3.48,12.56,2.32,23.35,6.02,32.36,11.1,9.01,5.08,15.96,11.65,20.87,19.71,4.9,8.06,7.35,17.78,7.35,29.17s-1.96,21.22-5.88,30.29c-3.92,9.07-10.11,16.82-18.57,23.26-8.46,6.44-19.34,11.41-32.63,14.91-13.3,3.5-29.39,5.26-48.26,5.26-5.27,0-10.82-.07-16.64-.2-5.82-.13-11.55-.29-17.19-.46-5.64-.18-11.03-.42-16.18-.72-5.15-.31-9.68-.59-13.6-.85V107.1Zm38.42,120.1c1.22,.18,2.69,.33,4.41,.46,1.71,.13,3.49,.26,5.33,.39,1.84,.13,3.65,.22,5.42,.26,1.78,.05,3.22,.07,4.32,.07,11.4,0,20.96-.48,28.68-1.45,7.72-.96,14.34-2.89,19.86-5.78,2.94-1.58,5.7-3.53,8.27-5.85,2.57-2.32,4.81-5.43,6.71-9.33,1.9-3.9,3.4-8.74,4.5-14.52,1.1-5.78,1.65-12.88,1.65-21.29,0-10.42-1.81-18.99-5.42-25.69-3.62-6.7-8.55-12-14.8-15.9-6.25-3.9-13.58-6.59-21.97-8.08-8.4-1.49-17.37-2.23-26.93-2.23-1.47,0-3.16,.02-5.06,.07-1.9,.05-3.77,.13-5.61,.26-1.84,.13-3.59,.26-5.24,.39-1.65,.13-3.03,.24-4.14,.33v107.88Z"/><path class="cls-5" d="M755.17,240.59h-113.43V106.04h109.39l-1.84,13.67-69.13,.66v43.76l65.08,.53-1.84,12.48-63.24,1.05v48.09l76.85,1.05-1.84,13.27Z"/><path class="cls-5" d="M787.9,240.59V106.04h38.42v120.36h71.52l-1.84,14.19h-108.1Z"/><path class="cls-5" d="M1081.68,212.21c-3.68,5.96-9.1,11.17-16.27,15.64-7.17,4.47-16.09,8.02-26.75,10.64-10.66,2.63-23.04,3.94-37.14,3.94-11.65,0-22.15-.83-31.53-2.5s-17.37-4.36-23.99-8.08c-6.62-3.72-11.74-8.61-15.35-14.65-3.62-6.04-5.42-13.44-5.42-22.21V106.04h38.42v91.58c0,6.75,.89,12.11,2.67,16.09,1.78,3.99,4.35,7.03,7.72,9.13,3.37,2.1,7.57,3.46,12.59,4.07,5.02,.61,10.85,.92,17.47,.92,8.09,0,15.08-.57,20.96-1.71,5.88-1.14,10.78-2.67,14.71-4.6,3.92-2.02,6.4-5.1,7.44-9.26,1.04-4.16,1.56-9.22,1.56-15.18V106.04h38.42v87.12c0,6.75-1.84,13.1-5.52,19.05Z"/><path class="cls-5" d="M1209.09,164.25l69.31,76.34h-43.2l-49.09-55.71-51.66,55.71h-25.19l66-66.62-61.04-67.93h43.2l40.45,47.17,43.02-47.17h25.19l-56.99,58.21Z"/><path class="cls-5" d="M1455.99,212.21c-3.68,5.96-9.1,11.17-16.27,15.64-7.17,4.47-16.09,8.02-26.75,10.64-10.66,2.63-23.04,3.94-37.14,3.94-11.65,0-22.15-.83-31.53-2.5-9.38-1.66-17.37-4.36-23.99-8.08-6.62-3.72-11.74-8.61-15.35-14.65-3.62-6.04-5.42-13.44-5.42-22.21V106.04h38.43v91.58c0,6.75,.89,12.11,2.67,16.09,1.77,3.99,4.35,7.03,7.72,9.13,3.37,2.1,7.57,3.46,12.59,4.07,5.02,.61,10.85,.92,17.47,.92,8.09,0,15.08-.57,20.96-1.71,5.88-1.14,10.78-2.67,14.71-4.6,3.92-2.02,6.4-5.1,7.44-9.26,1.04-4.16,1.56-9.22,1.56-15.18V106.04h38.42v87.12c0,6.75-1.84,13.1-5.52,19.05Z"/><path class="cls-5" d="M1618.33,201.18c0,4.91-1.75,9.81-5.24,14.72-3.49,4.91-8.46,9.33-14.89,13.27-6.43,3.94-14.19,7.14-23.26,9.59-9.07,2.45-19.24,3.68-30.52,3.68-6.13,0-11.74-.22-16.82-.66-5.09-.44-9.9-1.1-14.43-1.97-4.54-.87-8.89-1.91-13.05-3.09-4.17-1.18-8.34-2.52-12.5-4.01l9.38-19.97c2.69,1.31,6.34,2.69,10.94,4.14s9.5,2.78,14.71,4.01c5.21,1.23,10.51,2.26,15.9,3.09,5.39,.83,10.3,1.25,14.71,1.25,10.17,0,17.83-.79,22.98-2.36,2.82-.87,5.12-2.85,6.89-5.91,1.78-3.07,2.67-7.1,2.67-12.09,0-3.5-1.32-6.42-3.95-8.74-2.64-2.32-6.1-4.36-10.39-6.11-4.29-1.75-9.19-3.33-14.71-4.73-5.52-1.4-11.12-2.89-16.82-4.47-5.7-1.58-11.31-3.39-16.82-5.45-5.52-2.06-10.42-4.6-14.71-7.62-4.29-3.02-7.75-6.66-10.39-10.91-2.64-4.25-3.95-9.4-3.95-15.44,0-3.94,1.5-8.1,4.5-12.48,3-4.38,7.38-8.36,13.15-11.96,5.76-3.59,12.84-6.57,21.23-8.93,8.39-2.37,17.99-3.55,28.77-3.55,8.7,0,17.01,.31,24.91,.92,7.91,.61,15.6,1.4,23.07,2.36l-5.88,19.97c-3.56-.87-7.51-1.71-11.86-2.5-4.35-.79-8.8-1.47-13.33-2.04-4.54-.57-8.95-1.03-13.24-1.38-4.29-.35-8.09-.53-11.4-.53-3.56,0-7.26,.15-11.12,.46-3.86,.31-7.02,.94-9.47,1.91-2.45,.97-4.23,2.63-5.33,4.99-1.1,2.37-1.65,5.21-1.65,8.54s1.32,6.26,3.95,8.54c2.63,2.28,6.1,4.25,10.39,5.91,4.29,1.66,9.19,3.2,14.71,4.6,5.52,1.4,11.15,2.91,16.91,4.53,5.76,1.62,11.4,3.46,16.91,5.52,5.52,2.06,10.42,4.64,14.71,7.75,4.29,3.11,7.75,6.85,10.39,11.23,2.63,4.38,3.95,9.68,3.95,15.9Z"/></g><g><path class="cls-5" d="M1690.71,244.38V106.92h17.68V244.38h-17.68Z"/><path class="cls-5" d="M1797.96,244.38V106.92h14.37l30.44,84.99,.4-.18V106.92h16.28V244.38h-14.37l-30.44-85.59-.4-.02v85.61h-16.28Z"/><path class="cls-5" d="M1960.67,244.38V123.4h-21.1v-16.48h59.89v16.48h-21.1v120.97h-17.68Z"/><path class="cls-5" d="M2079.67,244.38V106.92h48.93v16.48h-31.25v41.09h28.64v16.48h-28.64v46.92h32.96v16.48h-50.64Z"/><path class="cls-5" d="M2220.58,244.38V106.92h14.77c11.79,0,20.78,3.47,26.98,10.4,6.19,6.93,9.3,16.16,9.3,27.68,0,13.06-4.76,22.88-14.27,29.44,7.37,5.22,13.63,19.13,18.79,41.7l6.33,28.23h-18.54l-5.31-23.71c-3.8-16.61-7.1-27.18-9.91-31.7-2.81-4.52-6.3-6.55-10.45-6.08v61.49h-17.68Zm17.68-77.97h.8c9.91,0,14.87-6.93,14.87-20.8,0-14.74-5.22-22.14-15.67-22.21v43Z"/><path class="cls-5" d="M2360.98,244.38V106.92h17.68V244.38h-17.68Z"/><path class="cls-5" d="M2500.08,246.18c-10.85,0-19.69-6.28-26.52-18.84-6.83-12.56-10.25-29.79-10.25-51.69,0-20.7,3.23-37.63,9.7-50.79,6.46-13.16,15.49-19.74,27.08-19.74s20.21,6.57,26.88,19.69c6.66,13.13,10,30.08,10,50.84,0,22.1-3.52,39.39-10.55,51.85s-15.81,18.69-26.33,18.69Zm-.2-124.59c-5.83,0-10.3,4.8-13.41,14.39-3.12,9.59-4.67,22.81-4.67,39.67s1.61,30.82,4.82,40.12c3.22,9.3,7.77,13.94,13.67,13.94s10.06-4.75,13.31-14.24c3.25-9.49,4.87-22.77,4.87-39.81s-1.64-30.66-4.92-40.02c-3.28-9.36-7.84-14.04-13.66-14.04Z"/><path class="cls-5" d="M2621.89,244.38V106.92h14.77c11.79,0,20.78,3.47,26.98,10.4,6.2,6.93,9.3,16.16,9.3,27.68,0,13.06-4.76,22.88-14.27,29.44,7.37,5.22,13.63,19.13,18.79,41.7l6.33,28.23h-18.53l-5.32-23.71c-3.79-16.61-7.1-27.18-9.91-31.7-2.81-4.52-6.3-6.55-10.45-6.08v61.49h-17.69Zm17.69-77.97h.8c9.91,0,14.87-6.93,14.87-20.8,0-14.74-5.22-22.14-15.67-22.21v43Z"/><path class="cls-5" d="M2757.37,240.86v-18.29c5.29,5.02,10.41,7.54,15.37,7.54,3.68,0,6.83-1.29,9.44-3.89,2.61-2.59,3.92-5.72,3.92-9.38,0-3.15-.74-6.96-2.21-11.45s-5.44-12.78-11.91-24.87c-6.46-12.09-10.67-21.25-12.61-27.48-1.94-6.23-2.92-11.72-2.92-16.48,0-9.24,2.63-16.79,7.89-22.66,5.26-5.86,11.97-8.79,20.14-8.79,4.62,0,9.55,1.2,14.77,3.62v16.68c-4.82-2.81-8.94-4.22-12.36-4.22-8.91,0-13.36,4.36-13.36,13.06,0,3.21,.75,7.08,2.26,11.61,1.51,4.52,5.49,12.76,11.96,24.72,6.46,11.96,10.65,21.07,12.56,27.33,1.91,6.26,2.86,11.81,2.86,16.63,0,9.38-2.63,17-7.89,22.86-5.26,5.86-12.07,8.79-20.45,8.79-6.03,0-11.86-1.77-17.48-5.32Z"/></g></g></svg>