<?xml version="1.0" encoding="UTF-8"?><svg id="Layer_2" xmlns="http://www.w3.org/2000/svg" xmlns:xlink="http://www.w3.org/1999/xlink" viewBox="0 0 821.23 909.74"><defs><style>.cls-1{fill:#d89328;}.cls-2{fill:#807158;}.cls-3{fill:url(#radial-gradient);}.cls-4{fill:url(#radial-gradient-2);}.cls-5{fill:#231f20;}</style><radialGradient id="radial-gradient" cx="401.5" cy="338.09" fx="401.5" fy="338.09" r="387.6" gradientUnits="userSpaceOnUse"><stop offset="0" stop-color="#a2b572"/><stop offset="1" stop-color="#677049"/></radialGradient><radialGradient id="radial-gradient-2" cy="338.09" fy="338.09" r="387.6" xlink:href="#radial-gradient"/></defs><g id="Layer_1-2"><polygon class="cls-1" points="272.51 70.97 395.77 0 518.92 70.96 395.77 142.08 272.51 70.97"/><polygon class="cls-2" points="294.92 83.92 272.71 96.83 395.77 168.03 519.02 96.86 496.72 83.86 395.72 142.08 294.92 83.92"/><path class="cls-3" d="M374.96,670.3c-1.72-.7-2.75-.99-3.65-1.5-27.27-15.67-54.53-31.37-81.8-47.05-23.79-13.68-47.56-27.38-71.39-40.99-21.19-12.1-42.46-24.12-61.55-39.45-14.92-11.99-28.71-25.21-41.57-39.44-14.75-16.32-27.93-33.78-39.77-52.27-15.17-23.67-28.25-48.44-39.3-74.32-10.51-24.61-19.02-49.85-24.57-75.99-3.13-14.73-5.8-29.68-6.99-44.66-1.51-19.01-2.33-38.19-1.6-57.23,1.08-28.11,6.72-55.41,21.01-80.2,12.18-21.13,29.26-36.94,52.36-45.28,13.42-4.84,27.44-6.02,41.84-4.73,32.26,2.9,61.31,14.95,88.94,30.72,54.59,31.15,108.84,62.88,163.3,94.25,3.55,2.05,4.82,4.34,4.82,8.44-.1,154.79-.09,309.58-.09,464.37v5.32Zm-59.92-272.08c.16-2.05,.34-3.24,.34-4.43,.01-59.45,0-118.9,.06-178.35,0-2.84-1-4.43-3.44-5.83-20.08-11.49-39.9-23.46-60.22-34.51-8.94-4.86-18.57-8.99-28.38-11.57-22.15-5.83-39.92,3.81-48.34,25.18-5.12,12.99-6.25,26.68-5.19,40.41,1.64,21.21,7.13,41.5,16.4,60.71,13.6,28.2,31.9,52.32,59.45,68.39,13.25,7.72,26.56,15.32,39.85,22.98,9.59,5.53,19.17,11.07,29.48,17.02Z"/><path class="cls-4" d="M419.68,669.78c-.1-2.12-.22-3.57-.22-5.02,0-154.95,0-309.9-.03-464.85,0-2.87,.29-5.05,3.27-6.76,55.78-32.12,111.38-64.56,167.27-96.49,22.32-12.75,46.01-22.54,71.46-27.22,25.21-4.64,49.73-3.38,72.26,10.47,23.72,14.59,38.42,36.19,47.22,62.16,6.64,19.62,9.44,39.9,10.27,60.52,2.6,64.42-11.72,125.31-38.37,183.58-19.71,43.11-44.44,83.02-76.51,118.15-25.93,28.4-56.25,51-89.69,69.9-54.49,30.8-108.57,62.3-162.83,93.5-1.13,.65-2.34,1.18-4.1,2.06Zm58.64-83.83c2.17-1.14,3.39-1.72,4.55-2.4,31.04-17.99,62.1-35.96,93.11-54,42.18-24.54,77.21-56.74,102.98-98.33,39.38-63.55,56.45-132.81,50.89-207.41-1.53-20.53-7.12-40.11-17.71-58.04-19.44-32.92-45.38-43.78-82.42-34.46-16.05,4.04-31.19,10.43-45.52,18.53-34.33,19.41-68.44,39.22-102.71,58.73-2.99,1.7-3.2,3.92-3.2,6.78,.03,121.79,.03,243.58,.03,365.37v5.23Z"/><g><path class="cls-5" d="M0,726.7c2.8-.24,6.08-.47,9.82-.68,3.74-.21,7.69-.39,11.86-.55,4.16-.15,8.35-.27,12.56-.36,4.21-.09,8.18-.14,11.92-.14,10.62,0,20.29,.81,29.01,2.42,8.71,1.61,16.19,4.18,22.44,7.7,6.25,3.52,11.07,8.08,14.47,13.67,3.4,5.59,5.1,12.33,5.1,20.23s-1.36,14.72-4.08,21c-2.72,6.29-7.01,11.66-12.88,16.13-5.87,4.47-13.41,7.91-22.63,10.34-9.22,2.43-20.38,3.65-33.47,3.65-3.66,0-7.5-.05-11.54-.14-4.04-.09-8.01-.2-11.92-.32-3.91-.12-7.65-.29-11.22-.5-3.57-.21-6.72-.41-9.43-.59v-91.85Zm26.65,83.29c.85,.12,1.87,.23,3.06,.32,1.19,.09,2.42,.18,3.7,.27,1.27,.09,2.53,.15,3.76,.18,1.23,.03,2.23,.05,3,.05,7.9,0,14.53-.33,19.89-1,5.36-.67,9.95-2,13.77-4.01,2.04-1.09,3.95-2.45,5.74-4.06,1.79-1.61,3.33-3.77,4.65-6.47,1.32-2.7,2.36-6.06,3.12-10.07,.77-4.01,1.15-8.93,1.15-14.76,0-7.23-1.25-13.17-3.76-17.82-2.51-4.65-5.93-8.32-10.26-11.03-4.33-2.7-9.42-4.57-15.24-5.6-5.82-1.03-12.05-1.55-18.68-1.55-1.02,0-2.19,.02-3.51,.05-1.32,.03-2.61,.09-3.89,.18-1.27,.09-2.49,.18-3.63,.27-1.15,.09-2.1,.17-2.87,.23v74.81Z"/><path class="cls-5" d="M222.62,819.29h-78.67v-93.31h75.86l-1.27,9.48-47.94,.46v30.35l45.14,.36-1.28,8.66-43.86,.73v33.35l53.29,.73-1.27,9.2Z"/><path class="cls-5" d="M245.31,819.29v-93.31h26.65v83.47h49.6l-1.27,9.84h-74.97Z"/><path class="cls-5" d="M449.06,799.6c-2.55,4.13-6.31,7.75-11.28,10.84-4.97,3.1-11.16,5.56-18.55,7.38-7.39,1.82-15.98,2.73-25.75,2.73-8.08,0-15.36-.58-21.87-1.73s-12.05-3.02-16.64-5.6c-4.59-2.58-8.14-5.97-10.65-10.16-2.51-4.19-3.76-9.32-3.76-15.4v-61.69h26.65v63.52c0,4.68,.62,8.4,1.85,11.16,1.23,2.77,3.02,4.88,5.35,6.33,2.34,1.46,5.25,2.4,8.73,2.82,3.48,.43,7.52,.64,12.11,.64,5.61,0,10.46-.39,14.54-1.18,4.08-.79,7.48-1.85,10.2-3.19,2.72-1.4,4.44-3.54,5.16-6.42,.72-2.88,1.08-6.39,1.08-10.53v-63.15h26.65v60.42c0,4.68-1.27,9.08-3.83,13.21Z"/><path class="cls-5" d="M537.41,766.34l48.07,52.94h-29.96l-34.04-38.64-35.83,38.64h-17.47l45.77-46.2-42.33-47.11h29.96l28.05,32.71,29.83-32.71h17.47l-39.53,40.37Z"/><path class="cls-5" d="M708.65,799.6c-2.55,4.13-6.31,7.75-11.28,10.84-4.97,3.1-11.16,5.56-18.55,7.38-7.39,1.82-15.98,2.73-25.75,2.73-8.08,0-15.36-.58-21.87-1.73-6.5-1.15-12.05-3.02-16.64-5.6-4.59-2.58-8.14-5.97-10.65-10.16-2.51-4.19-3.76-9.32-3.76-15.4v-61.69h26.65v63.52c0,4.68,.62,8.4,1.85,11.16,1.23,2.77,3.02,4.88,5.35,6.33,2.34,1.46,5.25,2.4,8.73,2.82,3.48,.43,7.52,.64,12.11,.64,5.61,0,10.46-.39,14.54-1.18,4.08-.79,7.48-1.85,10.2-3.19,2.72-1.4,4.44-3.54,5.16-6.42,.72-2.88,1.08-6.39,1.08-10.53v-63.15h26.65v60.42c0,4.68-1.27,9.08-3.83,13.21Z"/><path class="cls-5" d="M821.23,791.95c0,3.4-1.21,6.8-3.63,10.21-2.42,3.4-5.87,6.47-10.33,9.2-4.46,2.73-9.84,4.95-16.13,6.65-6.29,1.7-13.35,2.55-21.17,2.55-4.25,0-8.14-.15-11.67-.46-3.53-.3-6.87-.76-10.01-1.37-3.15-.61-6.16-1.32-9.05-2.14-2.89-.82-5.78-1.75-8.67-2.78l6.5-13.85c1.87,.91,4.4,1.87,7.59,2.87s6.59,1.93,10.2,2.78c3.61,.85,7.29,1.56,11.03,2.14,3.74,.58,7.14,.87,10.2,.87,7.05,0,12.37-.55,15.94-1.64,1.96-.61,3.55-1.97,4.78-4.1,1.23-2.13,1.85-4.92,1.85-8.38,0-2.43-.91-4.45-2.74-6.06-1.83-1.61-4.23-3.02-7.2-4.24-2.98-1.21-6.38-2.31-10.2-3.28-3.83-.97-7.71-2-11.67-3.1-3.95-1.09-7.84-2.35-11.67-3.78-3.83-1.43-7.23-3.19-10.2-5.29-2.98-2.1-5.38-4.62-7.2-7.56-1.83-2.95-2.74-6.52-2.74-10.71,0-2.73,1.04-5.62,3.12-8.66,2.08-3.04,5.12-5.8,9.12-8.29,3.99-2.49,8.9-4.56,14.73-6.2,5.82-1.64,12.47-2.46,19.95-2.46,6.03,0,11.79,.21,17.28,.64,5.48,.43,10.82,.97,16,1.64l-4.08,13.85c-2.47-.61-5.21-1.18-8.22-1.73-3.02-.55-6.1-1.02-9.24-1.41-3.15-.39-6.21-.71-9.18-.96-2.98-.24-5.61-.36-7.91-.36-2.47,0-5.04,.11-7.71,.32-2.68,.21-4.87,.65-6.57,1.32-1.7,.67-2.93,1.82-3.7,3.46-.76,1.64-1.15,3.62-1.15,5.92s.91,4.34,2.74,5.92c1.83,1.58,4.23,2.95,7.2,4.1,2.97,1.15,6.38,2.22,10.2,3.19,3.83,.97,7.73,2.02,11.73,3.14,4,1.12,7.91,2.4,11.73,3.83,3.83,1.43,7.22,3.22,10.2,5.38,2.97,2.16,5.38,4.75,7.2,7.79,1.83,3.04,2.74,6.71,2.74,11.03Z"/></g><g><path class="cls-5" d="M144.18,908.9v-63.85h8.22v63.85h-8.22Z"/><path class="cls-5" d="M194,908.9v-63.85h6.67l14.14,39.48,.19-.09v-39.4h7.56v63.85h-6.67l-14.14-39.76h-.19s0,39.76,0,39.76h-7.56Z"/><path class="cls-5" d="M269.59,908.9v-56.2h-9.8v-7.66h27.82v7.66h-9.8v56.2h-8.22Z"/><path class="cls-5" d="M324.87,908.9v-63.85h22.73v7.66h-14.52v19.09h13.3v7.66h-13.3v21.8h15.31v7.66h-23.53Z"/><path class="cls-5" d="M390.33,908.9v-63.85h6.86c5.48,0,9.65,1.61,12.53,4.83,2.88,3.22,4.32,7.51,4.32,12.86,0,6.07-2.21,10.63-6.63,13.68,3.42,2.43,6.33,8.88,8.73,19.37l2.94,13.12h-8.61l-2.47-11.02c-1.76-7.72-3.3-12.63-4.6-14.73-1.31-2.1-2.93-3.04-4.86-2.82v28.57h-8.21Zm8.21-36.22h.37c4.61,0,6.91-3.22,6.91-9.66,0-6.85-2.43-10.28-7.28-10.32v19.98Z"/><path class="cls-5" d="M455.56,908.9v-63.85h8.21v63.85h-8.21Z"/><path class="cls-5" d="M520.18,909.74c-5.04,0-9.15-2.92-12.32-8.75-3.17-5.83-4.76-13.84-4.76-24.01,0-9.62,1.5-17.48,4.5-23.6,3-6.12,7.2-9.17,12.58-9.17s9.39,3.05,12.49,9.15c3.1,6.1,4.64,13.97,4.64,23.62,0,10.27-1.63,18.3-4.9,24.08s-7.34,8.68-12.23,8.68Zm-.09-57.88c-2.71,0-4.79,2.23-6.23,6.69-1.45,4.46-2.17,10.6-2.17,18.43s.75,14.32,2.24,18.64c1.49,4.32,3.61,6.48,6.35,6.48s4.67-2.21,6.18-6.62c1.51-4.41,2.26-10.58,2.26-18.5s-.76-14.24-2.29-18.59c-1.52-4.35-3.64-6.52-6.35-6.52Z"/><path class="cls-5" d="M576.76,908.9v-63.85h6.86c5.48,0,9.65,1.61,12.53,4.83s4.32,7.51,4.32,12.86c0,6.07-2.21,10.63-6.63,13.68,3.42,2.43,6.33,8.88,8.73,19.37l2.94,13.12h-8.61l-2.47-11.02c-1.76-7.72-3.3-12.63-4.6-14.73-1.31-2.1-2.93-3.04-4.85-2.82v28.57h-8.22Zm8.22-36.22h.37c4.61,0,6.91-3.22,6.91-9.66,0-6.85-2.43-10.28-7.28-10.32v19.98Z"/><path class="cls-5" d="M639.7,907.26v-8.5c2.46,2.33,4.84,3.5,7.14,3.5,1.71,0,3.17-.6,4.39-1.81,1.21-1.2,1.82-2.66,1.82-4.36,0-1.46-.34-3.24-1.03-5.32s-2.53-5.94-5.53-11.55-4.96-9.87-5.86-12.77c-.9-2.89-1.35-5.45-1.35-7.66,0-4.29,1.22-7.8,3.67-10.53,2.44-2.72,5.56-4.08,9.36-4.08,2.15,0,4.43,.56,6.86,1.68v7.75c-2.24-1.31-4.15-1.96-5.74-1.96-4.14,0-6.21,2.02-6.21,6.07,0,1.49,.35,3.29,1.05,5.39,.7,2.1,2.55,5.93,5.55,11.48s4.95,9.79,5.83,12.7c.89,2.91,1.33,5.48,1.33,7.72,0,4.36-1.22,7.9-3.66,10.62-2.44,2.72-5.61,4.08-9.5,4.08-2.8,0-5.51-.82-8.12-2.47Z"/></g></g></svg>